<!DOCTYPE svg PUBLIC "-//W3C//DTD SVG 1.1//EN" "http://www.w3.org/Graphics/SVG/1.1/DTD/svg11.dtd">
<svg width="190.8mm" height="42.32mm" viewBox="0 0 190.8 42.32" xmlns="http://www.w3.org/2000/svg" version="1.1" xmlns:xlink="http://www.w3.org/1999/xlink">
<title>Airfoil plot (ch10sm-il) CH10 (smoothed) by AirfoilTools.com</title>
<g transform="translate(5.4,34.632)"><g transform="scale(1,-1)"><line fill="none" stroke="green" stroke-width="0.09" x1="18" x2="18" y1="-7.68" y2="34.63"></line><line fill="none" stroke="green" stroke-width="0.09" x1="36" x2="36" y1="-7.68" y2="34.63"></line><line fill="none" stroke="green" stroke-width="0.09" x1="54" x2="54" y1="-7.68" y2="34.63"></line><line fill="none" stroke="green" stroke-width="0.09" x1="72" x2="72" y1="-7.68" y2="34.63"></line><line fill="none" stroke="green" stroke-width="0.09" x1="90" x2="90" y1="-7.68" y2="34.63"></line><line fill="none" stroke="green" stroke-width="0.09" x1="108" x2="108" y1="-7.68" y2="34.63"></line><line fill="none" stroke="green" stroke-width="0.09" x1="126" x2="126" y1="-7.68" y2="34.63"></line><line fill="none" stroke="green" stroke-width="0.09" x1="144" x2="144" y1="-7.68" y2="34.63"></line><line fill="none" stroke="green" stroke-width="0.09" x1="162" x2="162" y1="-7.68" y2="34.63"></line><line fill="none" stroke="green" stroke-width="0.09" x1="180" x2="180" y1="-7.68" y2="34.63"></line><line fill="none" stroke="green" stroke-width="0.09" x1="-5.4" x2="185.4" y1="9" y2="9"></line><line fill="none" stroke="green" stroke-width="0.09" x1="-5.4" x2="185.4" y1="18" y2="18"></line><line fill="none" stroke="green" stroke-width="0.09" x1="-5.4" x2="185.4" y1="27" y2="27"></line>
<path fill="none" stroke="red" stroke-width="0.18" d="M 180 0.01 L 179.56 0.3 L 178.33 1.04 L 176.47 2 L 174.06 3.1 L 171.08 4.41 L 167.52 5.97 L 163.4 7.73 L 158.76 9.66 L 153.67 11.74 L 148.16 13.91 L 142.29 16.1 L 136.11 18.26 L 129.68 20.34 L 123.05 22.29 L 116.27 24.07 L 109.4 25.64 L 102.49 26.95 L 95.58 27.97 L 88.68 28.7 L 81.78 29.12 L 74.95 29.23 L 68.2 29.04 L 61.57 28.55 L 55.1 27.78 L 48.82 26.75 L 42.77 25.47 L 36.99 23.96 L 31.51 22.24 L 26.37 20.32 L 21.6 18.24 L 17.24 16.01 L 13.31 13.7 L 9.84 11.36 L 6.86 9.06 L 4.38 6.83 L 2.41 4.71 L 0.99 2.76 L 0.18 1.05 L 0 0.03 L 0.18 -0.81 L 0.99 -1.65 L 2.41 -2.12 L 4.38 -2.28 L 6.86 -2.18 L 9.84 -1.85 L 13.31 -1.37 L 17.24 -0.78 L 21.6 -0.14 L 26.37 0.58 L 31.51 1.35 L 36.99 2.16 L 42.77 3 L 48.82 3.84 L 55.1 4.67 L 61.57 5.47 L 68.2 6.22 L 74.95 6.91 L 81.78 7.52 L 88.68 8.04 L 95.58 8.45 L 102.49 8.73 L 109.4 8.88 L 116.27 8.88 L 123.05 8.72 L 129.68 8.41 L 136.11 7.96 L 142.29 7.39 L 148.16 6.73 L 153.67 5.98 L 158.76 5.16 L 163.4 4.29 L 167.52 3.41 L 171.08 2.54 L 174.06 1.68 L 176.47 0.93 L 178.33 0.38 L 179.56 0.08 L 180 -0.01 "></path>
<path fill="none" stroke="blue" stroke-width="0.18" d="M 0 0 L 180 0 "></path>
<path fill="none" stroke="rgb(120,120,0)" stroke-width="0.18" d="M 0 0.03 L 0.18 0.12 L 0.99 0.56 L 2.41 1.29 L 4.38 2.27 L 6.86 3.44 L 9.84 4.76 L 13.31 6.17 L 17.24 7.61 L 21.6 9.05 L 26.37 10.45 L 31.51 11.79 L 36.99 13.06 L 42.77 14.23 L 48.82 15.3 L 55.1 16.23 L 61.57 17.01 L 68.2 17.63 L 74.95 18.07 L 81.78 18.32 L 88.68 18.37 L 95.58 18.21 L 102.49 17.84 L 109.4 17.26 L 116.27 16.48 L 123.05 15.51 L 129.68 14.37 L 136.11 13.11 L 142.29 11.75 L 148.16 10.32 L 153.67 8.86 L 158.76 7.41 L 163.4 6.01 L 167.52 4.69 L 171.08 3.48 L 174.06 2.39 L 176.47 1.46 L 178.33 0.71 L 179.56 0.19 L 180 -0 "></path>
<line fill="none" stroke="black" stroke-width="0.18" x1="-5.4" x2="185.4" y1="0" y2="0"></line>
<line fill="none" stroke="black" stroke-width="0.18" x1="0" x2="0" y1="-7.68" y2="34.63"></line>
</g>
</g>
</svg>