<!DOCTYPE svg PUBLIC "-//W3C//DTD SVG 1.1//EN" "http://www.w3.org/Graphics/SVG/1.1/DTD/svg11.dtd">
<svg width="190.8mm" height="28.61mm" viewBox="0 0 190.8 28.61" xmlns="http://www.w3.org/2000/svg" version="1.1" xmlns:xlink="http://www.w3.org/1999/xlink">
<title>Airfoil plot (mh45-il) MH 45  9.85% by AirfoilTools.com</title>
<g transform="translate(5.4,17.2736784)"><g transform="scale(1,-1)"><line fill="none" stroke="green" stroke-width="0.09" x1="18" x2="18" y1="-11.33" y2="17.27"></line><line fill="none" stroke="green" stroke-width="0.09" x1="36" x2="36" y1="-11.33" y2="17.27"></line><line fill="none" stroke="green" stroke-width="0.09" x1="54" x2="54" y1="-11.33" y2="17.27"></line><line fill="none" stroke="green" stroke-width="0.09" x1="72" x2="72" y1="-11.33" y2="17.27"></line><line fill="none" stroke="green" stroke-width="0.09" x1="90" x2="90" y1="-11.33" y2="17.27"></line><line fill="none" stroke="green" stroke-width="0.09" x1="108" x2="108" y1="-11.33" y2="17.27"></line><line fill="none" stroke="green" stroke-width="0.09" x1="126" x2="126" y1="-11.33" y2="17.27"></line><line fill="none" stroke="green" stroke-width="0.09" x1="144" x2="144" y1="-11.33" y2="17.27"></line><line fill="none" stroke="green" stroke-width="0.09" x1="162" x2="162" y1="-11.33" y2="17.27"></line><line fill="none" stroke="green" stroke-width="0.09" x1="180" x2="180" y1="-11.33" y2="17.27"></line><line fill="none" stroke="green" stroke-width="0.09" x1="-5.4" x2="185.4" y1="9" y2="9"></line><line fill="none" stroke="green" stroke-width="0.09" x1="-5.4" x2="185.4" y1="-9" y2="-9"></line>
<path fill="none" stroke="red" stroke-width="0.18" d="M 180 0 L 179.4 -0.02 L 177.61 -0.03 L 174.63 0.03 L 170.55 0.24 L 165.45 0.61 L 159.44 1.15 L 152.6 1.88 L 145.07 2.8 L 137.01 3.9 L 128.54 5.1 L 119.8 6.34 L 110.88 7.55 L 101.85 8.66 L 92.78 9.64 L 83.76 10.46 L 74.84 11.1 L 66.13 11.56 L 57.7 11.82 L 49.64 11.87 L 42.01 11.7 L 34.87 11.31 L 28.28 10.71 L 22.29 9.9 L 16.95 8.91 L 12.3 7.76 L 8.38 6.47 L 5.2 5.08 L 2.77 3.61 L 1.09 2.14 L 0.23 0.88 L 0.08 0.5 L 0.01 0.14 L 0 -0.07 L 0.04 -0.26 L 0.13 -0.44 L 0.29 -0.62 L 0.6 -0.89 L 1.01 -1.18 L 3.19 -2.2 L 6.15 -3.11 L 9.94 -3.94 L 14.54 -4.67 L 19.9 -5.24 L 26.02 -5.63 L 32.84 -5.86 L 40.32 -5.93 L 48.39 -5.87 L 56.96 -5.7 L 65.95 -5.43 L 75.26 -5.08 L 84.78 -4.68 L 94.4 -4.24 L 104.01 -3.79 L 113.48 -3.34 L 122.7 -2.9 L 131.56 -2.48 L 139.95 -2.09 L 147.76 -1.72 L 154.91 -1.39 L 161.29 -1.09 L 166.83 -0.83 L 171.46 -0.59 L 175.13 -0.39 L 177.78 -0.2 L 179.43 -0.05 L 180 0 "></path>
<path fill="none" stroke="blue" stroke-width="0.18" d="M 0 0 L 180 0 "></path>
<path fill="none" stroke="rgb(120,120,0)" stroke-width="0.18" d="M 0.01 0.14 L 0 -0.04 L 0.04 0.01 L 0.13 0.1 L 0.29 0.18 L 0.6 0.27 L 1.01 0.42 L 3.19 0.84 L 6.15 1.19 L 9.94 1.52 L 14.54 1.82 L 19.9 2.11 L 26.02 2.39 L 32.84 2.63 L 40.32 2.84 L 48.39 2.99 L 56.96 3.06 L 65.95 3.07 L 75.26 3 L 84.78 2.84 L 94.4 2.61 L 104.01 2.3 L 113.48 1.93 L 122.7 1.51 L 131.56 1.09 L 139.95 0.7 L 147.76 0.38 L 154.91 0.12 L 161.29 -0.05 L 166.83 -0.16 L 171.46 -0.2 L 175.13 -0.18 L 177.78 -0.12 L 179.43 -0.04 L 180 0 "></path>
<line fill="none" stroke="black" stroke-width="0.18" x1="-5.4" x2="185.4" y1="0" y2="0"></line>
<line fill="none" stroke="black" stroke-width="0.18" x1="0" x2="0" y1="-11.33" y2="17.27"></line>
</g>
</g>
</svg>