<!DOCTYPE svg PUBLIC "-//W3C//DTD SVG 1.1//EN" "http://www.w3.org/Graphics/SVG/1.1/DTD/svg11.dtd">
<svg width="190.8mm" height="44.92mm" viewBox="0 0 190.8 44.92" xmlns="http://www.w3.org/2000/svg" version="1.1" xmlns:xlink="http://www.w3.org/1999/xlink">
<title>Airfoil plot (e420-il) EPPLER 420 AIRFOIL by AirfoilTools.com</title>
<g transform="translate(5.4,36.648)"><g transform="scale(1,-1)"><line fill="none" stroke="green" stroke-width="0.09" x1="18" x2="18" y1="-8.27" y2="36.65"></line><line fill="none" stroke="green" stroke-width="0.09" x1="36" x2="36" y1="-8.27" y2="36.65"></line><line fill="none" stroke="green" stroke-width="0.09" x1="54" x2="54" y1="-8.27" y2="36.65"></line><line fill="none" stroke="green" stroke-width="0.09" x1="72" x2="72" y1="-8.27" y2="36.65"></line><line fill="none" stroke="green" stroke-width="0.09" x1="90" x2="90" y1="-8.27" y2="36.65"></line><line fill="none" stroke="green" stroke-width="0.09" x1="108" x2="108" y1="-8.27" y2="36.65"></line><line fill="none" stroke="green" stroke-width="0.09" x1="126" x2="126" y1="-8.27" y2="36.65"></line><line fill="none" stroke="green" stroke-width="0.09" x1="144" x2="144" y1="-8.27" y2="36.65"></line><line fill="none" stroke="green" stroke-width="0.09" x1="162" x2="162" y1="-8.27" y2="36.65"></line><line fill="none" stroke="green" stroke-width="0.09" x1="180" x2="180" y1="-8.27" y2="36.65"></line><line fill="none" stroke="green" stroke-width="0.09" x1="-5.4" x2="185.4" y1="9" y2="9"></line><line fill="none" stroke="green" stroke-width="0.09" x1="-5.4" x2="185.4" y1="18" y2="18"></line><line fill="none" stroke="green" stroke-width="0.09" x1="-5.4" x2="185.4" y1="27" y2="27"></line><line fill="none" stroke="green" stroke-width="0.09" x1="-5.4" x2="185.4" y1="36" y2="36"></line>
<path fill="none" stroke="red" stroke-width="0.18" d="M 180 0 L 179.37 0.3 L 177.64 1.21 L 175.1 2.67 L 171.88 4.42 L 167.93 6.27 L 163.16 8.17 L 157.57 10.18 L 151.27 12.31 L 144.35 14.54 L 136.92 16.83 L 129.08 19.13 L 120.95 21.41 L 112.62 23.59 L 104.21 25.63 L 95.81 27.45 L 87.51 29 L 79.4 30.2 L 71.56 30.98 L 63.99 31.25 L 56.66 30.98 L 49.59 30.23 L 42.79 29.03 L 36.31 27.46 L 30.21 25.56 L 24.56 23.4 L 19.4 21 L 14.78 18.43 L 10.75 15.73 L 7.33 12.95 L 4.55 10.16 L 2.42 7.41 L 0.96 4.78 L 0.15 2.35 L 0.01 0.23 L 0.06 -0.19 L 0.18 -0.71 L 0.3 -1.03 L 0.44 -1.32 L 0.52 -1.45 L 0.6 -1.57 L 0.7 -1.68 L 0.81 -1.77 L 0.94 -1.86 L 1.09 -1.95 L 1.41 -2.1 L 1.79 -2.25 L 2.44 -2.44 L 4.53 -2.78 L 8.1 -2.87 L 12.64 -2.54 L 18.17 -1.77 L 24.71 -0.57 L 32.29 1.02 L 40.98 2.87 L 50.76 4.75 L 61.47 6.42 L 72.84 7.69 L 84.52 8.46 L 96.24 8.82 L 107.8 8.8 L 119.01 8.41 L 129.64 7.71 L 139.52 6.79 L 148.53 5.74 L 156.57 4.63 L 163.53 3.51 L 169.35 2.46 L 173.96 1.52 L 177.3 0.74 L 179.32 0.2 L 180 0 "></path>
<path fill="none" stroke="blue" stroke-width="0.18" d="M 0 0 L 180 0 "></path>
<path fill="none" stroke="rgb(120,120,0)" stroke-width="0.18" d="M 0.01 0.23 L 0.06 0.4 L 0.18 0.86 L 0.3 0.88 L 0.44 0.94 L 0.52 1 L 0.6 1.07 L 0.7 1.16 L 0.81 1.29 L 0.94 1.44 L 1.09 1.53 L 1.41 1.75 L 1.79 2.01 L 2.44 2.5 L 4.53 3.68 L 8.1 5.35 L 12.64 7.23 L 18.17 9.28 L 24.71 11.44 L 32.29 13.61 L 40.98 15.73 L 50.76 17.55 L 61.47 18.79 L 72.84 19.27 L 84.52 18.95 L 96.24 18.09 L 107.8 16.78 L 119.01 15.16 L 129.64 13.34 L 139.52 11.41 L 148.53 9.47 L 156.57 7.57 L 163.53 5.76 L 169.35 4.03 L 173.96 2.4 L 177.3 1.07 L 179.32 0.26 L 180 0 "></path>
<line fill="none" stroke="black" stroke-width="0.18" x1="-5.4" x2="185.4" y1="0" y2="0"></line>
<line fill="none" stroke="black" stroke-width="0.18" x1="0" x2="0" y1="-8.27" y2="36.65"></line>
</g>
</g>
</svg>