<!DOCTYPE svg PUBLIC "-//W3C//DTD SVG 1.1//EN" "http://www.w3.org/Graphics/SVG/1.1/DTD/svg11.dtd">
<svg width="190.8mm" height="38mm" viewBox="0 0 190.8 38" xmlns="http://www.w3.org/2000/svg" version="1.1" xmlns:xlink="http://www.w3.org/1999/xlink">
<title>Airfoil plot (s1223-il) S1223 by AirfoilTools.com</title>
<g transform="translate(5.4,29.7468)"><g transform="scale(1,-1)"><line fill="none" stroke="green" stroke-width="0.09" x1="18" x2="18" y1="-8.25" y2="29.75"></line><line fill="none" stroke="green" stroke-width="0.09" x1="36" x2="36" y1="-8.25" y2="29.75"></line><line fill="none" stroke="green" stroke-width="0.09" x1="54" x2="54" y1="-8.25" y2="29.75"></line><line fill="none" stroke="green" stroke-width="0.09" x1="72" x2="72" y1="-8.25" y2="29.75"></line><line fill="none" stroke="green" stroke-width="0.09" x1="90" x2="90" y1="-8.25" y2="29.75"></line><line fill="none" stroke="green" stroke-width="0.09" x1="108" x2="108" y1="-8.25" y2="29.75"></line><line fill="none" stroke="green" stroke-width="0.09" x1="126" x2="126" y1="-8.25" y2="29.75"></line><line fill="none" stroke="green" stroke-width="0.09" x1="144" x2="144" y1="-8.25" y2="29.75"></line><line fill="none" stroke="green" stroke-width="0.09" x1="162" x2="162" y1="-8.25" y2="29.75"></line><line fill="none" stroke="green" stroke-width="0.09" x1="180" x2="180" y1="-8.25" y2="29.75"></line><line fill="none" stroke="green" stroke-width="0.09" x1="-5.4" x2="185.4" y1="9" y2="9"></line><line fill="none" stroke="green" stroke-width="0.09" x1="-5.4" x2="185.4" y1="18" y2="18"></line><line fill="none" stroke="green" stroke-width="0.09" x1="-5.4" x2="185.4" y1="27" y2="27"></line>
<path fill="none" stroke="red" stroke-width="0.18" d="M 180 0 L 179.71 0.23 L 178.95 0.89 L 177.89 1.87 L 176.54 2.96 L 174.8 4.05 L 172.59 5.14 L 169.9 6.26 L 166.75 7.41 L 163.15 8.58 L 159.13 9.77 L 154.7 10.96 L 149.9 12.15 L 144.74 13.32 L 139.26 14.48 L 133.5 15.61 L 127.48 16.7 L 121.25 17.75 L 114.84 18.74 L 108.28 19.68 L 101.64 20.57 L 94.94 21.39 L 88.25 22.15 L 81.61 22.83 L 75.1 23.42 L 68.75 23.89 L 62.6 24.2 L 56.68 24.35 L 51.02 24.31 L 45.67 24.02 L 40.57 23.47 L 35.72 22.67 L 31.11 21.65 L 26.75 20.44 L 22.66 19.08 L 18.87 17.59 L 15.38 15.98 L 12.22 14.29 L 9.4 12.54 L 6.94 10.74 L 4.85 8.94 L 3.16 7.13 L 1.85 5.32 L 0.89 3.54 L 0.28 1.86 L 0.01 0.32 L 0.08 -1.01 L 0.48 -2.02 L 1.42 -2.57 L 3.09 -2.79 L 5.41 -2.85 L 8.33 -2.76 L 11.81 -2.53 L 15.82 -2.16 L 20.31 -1.67 L 25.24 -1.01 L 30.61 -0.14 L 36.5 0.96 L 42.91 2.18 L 49.81 3.47 L 57.15 4.77 L 64.88 6.04 L 72.93 7.24 L 81.25 8.31 L 89.75 9.23 L 98.35 9.96 L 106.97 10.48 L 115.52 10.76 L 123.9 10.79 L 132.02 10.57 L 139.79 10.1 L 147.11 9.39 L 153.9 8.47 L 160.07 7.36 L 165.54 6.1 L 170.23 4.72 L 174.05 3.28 L 176.86 1.91 L 178.68 0.84 L 179.69 0.21 L 180 0 "></path>
<path fill="none" stroke="blue" stroke-width="0.18" d="M 0 0 L 180 0 "></path>
<path fill="none" stroke="rgb(120,120,0)" stroke-width="0.18" d="M 0.28 1.86 L 0.89 0.64 L 1.85 1.35 L 3.16 2.17 L 4.85 3.05 L 6.94 3.97 L 9.4 4.93 L 12.22 5.9 L 15.38 6.89 L 18.87 7.88 L 22.66 8.86 L 26.75 9.84 L 31.11 10.8 L 35.72 11.74 L 40.57 12.6 L 45.67 13.36 L 51.02 14 L 56.68 14.52 L 62.6 14.94 L 68.75 15.25 L 75.1 15.47 L 81.61 15.59 L 88.25 15.61 L 94.94 15.53 L 101.64 15.36 L 108.28 15.1 L 114.84 14.74 L 121.25 14.26 L 127.48 13.7 L 133.5 13.04 L 139.26 12.31 L 144.74 11.47 L 149.9 10.58 L 154.7 9.64 L 159.13 8.65 L 163.15 7.61 L 166.75 6.58 L 169.9 5.54 L 172.59 4.48 L 174.8 3.48 L 176.54 2.51 L 177.89 1.59 L 178.95 0.78 L 179.71 0.21 L 180 0 "></path>
<line fill="none" stroke="black" stroke-width="0.18" x1="-5.4" x2="185.4" y1="0" y2="0"></line>
<line fill="none" stroke="black" stroke-width="0.18" x1="0" x2="0" y1="-8.25" y2="29.75"></line>
</g>
</g>
</svg>