<!DOCTYPE svg PUBLIC "-//W3C//DTD SVG 1.1//EN" "http://www.w3.org/Graphics/SVG/1.1/DTD/svg11.dtd">
<svg width="191.11mm" height="43.49mm" viewBox="0 0 191.11 43.49" xmlns="http://www.w3.org/2000/svg" version="1.1" xmlns:xlink="http://www.w3.org/1999/xlink">
<title>Airfoil plot (naca23118) NACA 23118 Airfoil cl=0.30 T=18.0% P=15.0% by AirfoilTools.com</title>
<g transform="translate(5.70618,24.6627)"><g transform="scale(1,-1)"><line fill="none" stroke="green" stroke-width="0.09" x1="18" x2="18" y1="-18.83" y2="24.66"></line><line fill="none" stroke="green" stroke-width="0.09" x1="36" x2="36" y1="-18.83" y2="24.66"></line><line fill="none" stroke="green" stroke-width="0.09" x1="54" x2="54" y1="-18.83" y2="24.66"></line><line fill="none" stroke="green" stroke-width="0.09" x1="72" x2="72" y1="-18.83" y2="24.66"></line><line fill="none" stroke="green" stroke-width="0.09" x1="90" x2="90" y1="-18.83" y2="24.66"></line><line fill="none" stroke="green" stroke-width="0.09" x1="108" x2="108" y1="-18.83" y2="24.66"></line><line fill="none" stroke="green" stroke-width="0.09" x1="126" x2="126" y1="-18.83" y2="24.66"></line><line fill="none" stroke="green" stroke-width="0.09" x1="144" x2="144" y1="-18.83" y2="24.66"></line><line fill="none" stroke="green" stroke-width="0.09" x1="162" x2="162" y1="-18.83" y2="24.66"></line><line fill="none" stroke="green" stroke-width="0.09" x1="180" x2="180" y1="-18.83" y2="24.66"></line><line fill="none" stroke="green" stroke-width="0.09" x1="-5.71" x2="185.4" y1="9" y2="9"></line><line fill="none" stroke="green" stroke-width="0.09" x1="-5.71" x2="185.4" y1="18" y2="18"></line><line fill="none" stroke="green" stroke-width="0.09" x1="-5.71" x2="185.4" y1="-9" y2="-9"></line><line fill="none" stroke="green" stroke-width="0.09" x1="-5.71" x2="185.4" y1="-18" y2="-18"></line>
<path fill="none" stroke="red" stroke-width="0.18" d="M 180 0.34 L 179.72 0.4 L 178.89 0.58 L 177.52 0.87 L 175.6 1.27 L 173.16 1.78 L 170.21 2.39 L 166.76 3.09 L 162.85 3.87 L 158.49 4.73 L 153.71 5.65 L 148.55 6.63 L 143.03 7.65 L 137.19 8.71 L 131.06 9.8 L 124.68 10.89 L 118.09 11.98 L 111.33 13.05 L 104.44 14.09 L 97.47 15.08 L 90.45 16.01 L 83.42 16.85 L 76.43 17.6 L 69.53 18.23 L 62.74 18.72 L 56.13 19.06 L 49.71 19.25 L 43.54 19.26 L 37.64 19.1 L 31.88 18.73 L 26.31 18.07 L 21.04 17.09 L 16.18 15.77 L 11.85 14.15 L 8.11 12.27 L 5.04 10.22 L 2.66 8.07 L 0.99 5.93 L 0.01 3.84 L -0.31 1.86 L 0 0 L 0.86 -1.67 L 2.21 -3.12 L 3.98 -4.37 L 6.15 -5.47 L 8.66 -6.45 L 11.51 -7.35 L 14.68 -8.19 L 18.19 -9.01 L 22.09 -9.81 L 26.42 -10.59 L 31.22 -11.35 L 36.56 -12.05 L 42.41 -12.63 L 48.57 -13.05 L 54.99 -13.32 L 61.63 -13.43 L 68.45 -13.41 L 75.41 -13.24 L 82.46 -12.96 L 89.55 -12.56 L 96.66 -12.07 L 103.71 -11.49 L 110.69 -10.83 L 117.53 -10.11 L 124.2 -9.34 L 130.66 -8.54 L 136.86 -7.71 L 142.77 -6.87 L 148.35 -6.03 L 153.56 -5.21 L 158.38 -4.41 L 162.77 -3.64 L 166.71 -2.94 L 170.17 -2.29 L 173.14 -1.72 L 175.59 -1.24 L 177.51 -0.85 L 178.89 -0.57 L 179.72 -0.4 L 180 -0.34 "></path>
<path fill="none" stroke="blue" stroke-width="0.18" d="M 0 0 L 180 0 "></path>
<path fill="none" stroke="rgb(120,120,0)" stroke-width="0.18" d="M 0.01 3.84 L -0.31 0.93 L 0 0 L 0.86 1.99 L 2.21 2.19 L 3.98 2.45 L 6.15 2.74 L 8.66 3.05 L 11.51 3.31 L 14.68 3.51 L 18.19 3.65 L 22.09 3.74 L 26.42 3.75 L 31.22 3.65 L 36.56 3.49 L 42.41 3.3 L 48.57 3.1 L 54.99 2.89 L 61.63 2.67 L 68.45 2.45 L 75.41 2.22 L 82.46 2 L 89.55 1.78 L 96.66 1.56 L 103.71 1.35 L 110.69 1.16 L 117.53 0.98 L 124.2 0.81 L 130.66 0.66 L 136.86 0.53 L 142.77 0.41 L 148.35 0.32 L 153.56 0.24 L 158.38 0.17 L 162.77 0.12 L 166.71 0.08 L 170.17 0.05 L 173.14 0.03 L 175.59 0.02 L 177.51 0.01 L 178.89 0 L 179.72 0 L 180 0 "></path>
<line fill="none" stroke="black" stroke-width="0.18" x1="-5.71" x2="185.4" y1="0" y2="0"></line>
<line fill="none" stroke="black" stroke-width="0.18" x1="0" x2="0" y1="-18.83" y2="24.66"></line>
</g>
</g>
</svg>