<!DOCTYPE svg PUBLIC "-//W3C//DTD SVG 1.1//EN" "http://www.w3.org/Graphics/SVG/1.1/DTD/svg11.dtd">
<svg width="190.8mm" height="37.87mm" viewBox="0 0 190.8 37.87" xmlns="http://www.w3.org/2000/svg" version="1.1" xmlns:xlink="http://www.w3.org/1999/xlink">
<title>Airfoil plot (naca23015-il) NACA 23015 by AirfoilTools.com</title>
<g transform="translate(5.4,21.744)"><g transform="scale(1,-1)"><line fill="none" stroke="green" stroke-width="0.09" x1="18" x2="18" y1="-16.13" y2="21.74"></line><line fill="none" stroke="green" stroke-width="0.09" x1="36" x2="36" y1="-16.13" y2="21.74"></line><line fill="none" stroke="green" stroke-width="0.09" x1="54" x2="54" y1="-16.13" y2="21.74"></line><line fill="none" stroke="green" stroke-width="0.09" x1="72" x2="72" y1="-16.13" y2="21.74"></line><line fill="none" stroke="green" stroke-width="0.09" x1="90" x2="90" y1="-16.13" y2="21.74"></line><line fill="none" stroke="green" stroke-width="0.09" x1="108" x2="108" y1="-16.13" y2="21.74"></line><line fill="none" stroke="green" stroke-width="0.09" x1="126" x2="126" y1="-16.13" y2="21.74"></line><line fill="none" stroke="green" stroke-width="0.09" x1="144" x2="144" y1="-16.13" y2="21.74"></line><line fill="none" stroke="green" stroke-width="0.09" x1="162" x2="162" y1="-16.13" y2="21.74"></line><line fill="none" stroke="green" stroke-width="0.09" x1="180" x2="180" y1="-16.13" y2="21.74"></line><line fill="none" stroke="green" stroke-width="0.09" x1="-5.4" x2="185.4" y1="9" y2="9"></line><line fill="none" stroke="green" stroke-width="0.09" x1="-5.4" x2="185.4" y1="18" y2="18"></line><line fill="none" stroke="green" stroke-width="0.09" x1="-5.4" x2="185.4" y1="-9" y2="-9"></line>
<path fill="none" stroke="red" stroke-width="0.18" d="M 180 0.29 L 171 2.02 L 162 3.67 L 144 6.71 L 126 9.45 L 108 11.9 L 90 13.93 L 72 15.46 L 54 16.29 L 45 16.34 L 36 16.06 L 27 15.34 L 18 13.75 L 13.5 12.42 L 9 10.6 L 4.5 7.99 L 2.25 6.01 L 0 0 L 2.25 -2.77 L 4.5 -4.05 L 9 -5.47 L 13.5 -6.5 L 18 -7.36 L 27 -8.71 L 36 -9.74 L 45 -10.4 L 54 -10.73 L 72 -10.66 L 90 -9.9 L 108 -8.66 L 126 -7.04 L 144 -5.09 L 162 -2.86 L 171 -1.62 L 180 -0.29 "></path>
<path fill="none" stroke="blue" stroke-width="0.18" d="M 0 0 L 180 0 "></path>
<path fill="none" stroke="rgb(120,120,0)" stroke-width="0.18" d="M 0 0 L 2.25 1.62 L 4.5 1.97 L 9 2.57 L 13.5 2.96 L 18 3.2 L 27 3.31 L 36 3.16 L 45 2.97 L 54 2.78 L 72 2.4 L 90 2.02 L 108 1.62 L 126 1.21 L 144 0.81 L 162 0.41 L 171 0.2 L 180 0 "></path>
<line fill="none" stroke="black" stroke-width="0.18" x1="-5.4" x2="185.4" y1="0" y2="0"></line>
<line fill="none" stroke="black" stroke-width="0.18" x1="0" x2="0" y1="-16.13" y2="21.74"></line>
</g>
</g>
</svg>