<!DOCTYPE svg PUBLIC "-//W3C//DTD SVG 1.1//EN" "http://www.w3.org/Graphics/SVG/1.1/DTD/svg11.dtd">
<svg width="190.81mm" height="32.59mm" viewBox="0 0 190.81 32.59" xmlns="http://www.w3.org/2000/svg" version="1.1" xmlns:xlink="http://www.w3.org/1999/xlink">
<title>Airfoil plot (naca23012-il) NACA 23012  12% by AirfoilTools.com</title>
<g transform="translate(5.4,19.0746)"><g transform="scale(1,-1)"><line fill="none" stroke="green" stroke-width="0.09" x1="18" x2="18" y1="-13.52" y2="19.07"></line><line fill="none" stroke="green" stroke-width="0.09" x1="36" x2="36" y1="-13.52" y2="19.07"></line><line fill="none" stroke="green" stroke-width="0.09" x1="54" x2="54" y1="-13.52" y2="19.07"></line><line fill="none" stroke="green" stroke-width="0.09" x1="72" x2="72" y1="-13.52" y2="19.07"></line><line fill="none" stroke="green" stroke-width="0.09" x1="90" x2="90" y1="-13.52" y2="19.07"></line><line fill="none" stroke="green" stroke-width="0.09" x1="108" x2="108" y1="-13.52" y2="19.07"></line><line fill="none" stroke="green" stroke-width="0.09" x1="126" x2="126" y1="-13.52" y2="19.07"></line><line fill="none" stroke="green" stroke-width="0.09" x1="144" x2="144" y1="-13.52" y2="19.07"></line><line fill="none" stroke="green" stroke-width="0.09" x1="162" x2="162" y1="-13.52" y2="19.07"></line><line fill="none" stroke="green" stroke-width="0.09" x1="180" x2="180" y1="-13.52" y2="19.07"></line><line fill="none" stroke="green" stroke-width="0.09" x1="-5.4" x2="185.41" y1="9" y2="9"></line><line fill="none" stroke="green" stroke-width="0.09" x1="-5.4" x2="185.41" y1="18" y2="18"></line><line fill="none" stroke="green" stroke-width="0.09" x1="-5.4" x2="185.41" y1="-9" y2="-9"></line>
<path fill="none" stroke="red" stroke-width="0.18" d="M 180.01 0.23 L 179.51 0.31 L 178.05 0.54 L 175.61 0.93 L 172.25 1.46 L 167.98 2.12 L 162.87 2.88 L 156.95 3.74 L 150.31 4.67 L 143.01 5.66 L 135.13 6.68 L 126.75 7.71 L 117.97 8.74 L 108.89 9.73 L 99.6 10.66 L 90.21 11.51 L 80.81 12.26 L 71.52 12.87 L 62.43 13.32 L 53.63 13.6 L 45.24 13.67 L 37.33 13.54 L 29.89 13.18 L 22.92 12.45 L 16.61 11.28 L 11.17 9.69 L 6.71 7.78 L 3.36 5.72 L 1.13 3.65 L 0.03 1.72 L 0 0 L 0.96 -1.43 L 2.8 -2.52 L 5.45 -3.37 L 8.85 -4.05 L 12.95 -4.65 L 17.76 -5.26 L 23.32 -5.91 L 29.67 -6.59 L 36.87 -7.23 L 44.76 -7.71 L 53.16 -8 L 61.95 -8.12 L 71.06 -8.07 L 80.37 -7.87 L 89.79 -7.54 L 99.21 -7.1 L 108.53 -6.58 L 117.65 -5.99 L 126.46 -5.36 L 134.87 -4.69 L 142.79 -4.02 L 150.13 -3.36 L 156.81 -2.72 L 162.76 -2.12 L 167.9 -1.58 L 172.19 -1.12 L 175.58 -0.74 L 178.02 -0.46 L 179.5 -0.28 L 179.99 -0.23 "></path>
<path fill="none" stroke="blue" stroke-width="0.18" d="M 0 0 L 180 0 "></path>
<path fill="none" stroke="rgb(120,120,0)" stroke-width="0.18" d="M 0 0 L 0.03 0.86 L 1.13 1.06 L 3.36 1.51 L 6.71 2.08 L 11.17 2.65 L 16.61 3.08 L 22.92 3.29 L 29.89 3.28 L 37.33 3.14 L 45.24 2.97 L 53.63 2.79 L 62.43 2.6 L 71.52 2.41 L 80.81 2.2 L 90.21 2 L 99.6 1.79 L 108.89 1.59 L 117.97 1.39 L 126.75 1.19 L 135.13 1.01 L 143.01 0.83 L 150.31 0.67 L 156.95 0.52 L 162.87 0.39 L 167.98 0.27 L 172.25 0.18 L 175.61 0.1 L 178.05 0.04 L 179.51 0.01 L 180.01 0.11 "></path>
<line fill="none" stroke="black" stroke-width="0.18" x1="-5.4" x2="185.41" y1="0" y2="0"></line>
<line fill="none" stroke="black" stroke-width="0.18" x1="0" x2="0" y1="-13.52" y2="19.07"></line>
</g>
</g>
</svg>