<!DOCTYPE svg PUBLIC "-//W3C//DTD SVG 1.1//EN" "http://www.w3.org/Graphics/SVG/1.1/DTD/svg11.dtd">
<svg width="190.8mm" height="38.58mm" viewBox="0 0 190.8 38.58" xmlns="http://www.w3.org/2000/svg" version="1.1" xmlns:xlink="http://www.w3.org/1999/xlink">
<title>Airfoil plot (lnv109a-il) LNV109A by AirfoilTools.com</title>
<g transform="translate(5.4,27.50112)"><g transform="scale(1,-1)"><line fill="none" stroke="green" stroke-width="0.09" x1="18" x2="18" y1="-11.08" y2="27.5"></line><line fill="none" stroke="green" stroke-width="0.09" x1="36" x2="36" y1="-11.08" y2="27.5"></line><line fill="none" stroke="green" stroke-width="0.09" x1="54" x2="54" y1="-11.08" y2="27.5"></line><line fill="none" stroke="green" stroke-width="0.09" x1="72" x2="72" y1="-11.08" y2="27.5"></line><line fill="none" stroke="green" stroke-width="0.09" x1="90" x2="90" y1="-11.08" y2="27.5"></line><line fill="none" stroke="green" stroke-width="0.09" x1="108" x2="108" y1="-11.08" y2="27.5"></line><line fill="none" stroke="green" stroke-width="0.09" x1="126" x2="126" y1="-11.08" y2="27.5"></line><line fill="none" stroke="green" stroke-width="0.09" x1="144" x2="144" y1="-11.08" y2="27.5"></line><line fill="none" stroke="green" stroke-width="0.09" x1="162" x2="162" y1="-11.08" y2="27.5"></line><line fill="none" stroke="green" stroke-width="0.09" x1="180" x2="180" y1="-11.08" y2="27.5"></line><line fill="none" stroke="green" stroke-width="0.09" x1="-5.4" x2="185.4" y1="9" y2="9"></line><line fill="none" stroke="green" stroke-width="0.09" x1="-5.4" x2="185.4" y1="18" y2="18"></line><line fill="none" stroke="green" stroke-width="0.09" x1="-5.4" x2="185.4" y1="27" y2="27"></line><line fill="none" stroke="green" stroke-width="0.09" x1="-5.4" x2="185.4" y1="-9" y2="-9"></line>
<path fill="none" stroke="red" stroke-width="0.18" d="M 180 0 L 178.91 0.1 L 177.51 0.2 L 175.8 0.32 L 173.79 0.48 L 171.49 0.67 L 168.91 0.91 L 166.05 1.2 L 162.93 1.53 L 159.55 1.92 L 155.93 2.38 L 152.07 2.89 L 148.01 3.47 L 143.74 4.12 L 139.28 4.84 L 134.66 5.64 L 129.87 6.5 L 124.95 7.43 L 119.91 8.44 L 114.77 9.51 L 109.54 10.65 L 104.25 11.85 L 98.91 13.1 L 93.54 14.39 L 88.16 15.71 L 82.78 17.05 L 77.44 18.38 L 72.14 19.66 L 66.91 20.75 L 61.76 21.51 L 56.72 21.95 L 51.79 22.1 L 47 21.99 L 42.36 21.65 L 37.9 21.09 L 33.62 20.34 L 29.54 19.43 L 25.67 18.36 L 22.04 17.18 L 18.64 15.89 L 15.5 14.53 L 12.63 13.11 L 10.03 11.65 L 7.71 10.18 L 5.69 8.7 L 3.96 7.23 L 2.54 5.8 L 1.43 4.39 L 0.64 2.95 L 0.16 1.45 L 0 0 L 0.16 -1.45 L 0.64 -2.8 L 1.43 -3.98 L 2.54 -4.91 L 3.96 -5.48 L 5.69 -5.68 L 7.71 -5.62 L 10.03 -5.42 L 12.63 -5.14 L 15.5 -4.8 L 18.64 -4.42 L 22.04 -4 L 25.67 -3.56 L 29.54 -3.1 L 33.62 -2.64 L 37.9 -2.18 L 42.36 -1.73 L 47 -1.29 L 51.79 -0.86 L 56.72 -0.46 L 61.76 -0.08 L 66.91 0.27 L 72.14 0.59 L 77.44 0.86 L 82.78 1.09 L 88.16 1.26 L 93.54 1.36 L 98.91 1.4 L 104.25 1.41 L 109.54 1.38 L 114.77 1.33 L 119.91 1.25 L 124.95 1.17 L 129.87 1.07 L 134.66 0.96 L 139.28 0.85 L 143.74 0.74 L 148.01 0.64 L 152.07 0.54 L 155.93 0.44 L 159.55 0.35 L 162.93 0.27 L 166.05 0.2 L 168.91 0.14 L 171.49 0.09 L 173.79 0.05 L 175.8 0.02 L 177.51 -0.01 L 178.91 -0.02 L 180 0 "></path>
<path fill="none" stroke="blue" stroke-width="0.18" d="M 0 0 L 180 0 "></path>
<path fill="none" stroke="rgb(120,120,0)" stroke-width="0.18" d="M 0 0 L 0.16 0 L 0.64 0.08 L 1.43 0.2 L 2.54 0.45 L 3.96 0.88 L 5.69 1.51 L 7.71 2.28 L 10.03 3.12 L 12.63 3.98 L 15.5 4.86 L 18.64 5.74 L 22.04 6.59 L 25.67 7.4 L 29.54 8.16 L 33.62 8.85 L 37.9 9.45 L 42.36 9.96 L 47 10.35 L 51.79 10.62 L 56.72 10.75 L 61.76 10.72 L 66.91 10.51 L 72.14 10.13 L 77.44 9.62 L 82.78 9.07 L 88.16 8.48 L 93.54 7.87 L 98.91 7.25 L 104.25 6.63 L 109.54 6.02 L 114.77 5.42 L 119.91 4.85 L 124.95 4.3 L 129.87 3.78 L 134.66 3.3 L 139.28 2.85 L 143.74 2.43 L 148.01 2.06 L 152.07 1.71 L 155.93 1.41 L 159.55 1.14 L 162.93 0.9 L 166.05 0.7 L 168.91 0.53 L 171.49 0.38 L 173.79 0.26 L 175.8 0.17 L 177.51 0.1 L 178.91 0.04 L 180 0 "></path>
<line fill="none" stroke="black" stroke-width="0.18" x1="-5.4" x2="185.4" y1="0" y2="0"></line>
<line fill="none" stroke="black" stroke-width="0.18" x1="0" x2="0" y1="-11.08" y2="27.5"></line>
</g>
</g>
</svg>