<!DOCTYPE svg PUBLIC "-//W3C//DTD SVG 1.1//EN" "http://www.w3.org/Graphics/SVG/1.1/DTD/svg11.dtd">
<svg width="190.91mm" height="32.88mm" viewBox="0 0 190.91 32.88" xmlns="http://www.w3.org/2000/svg" version="1.1" xmlns:xlink="http://www.w3.org/1999/xlink">
<title>Airfoil plot (naca23112) NACA 23112 Airfoil cl=0.30 T=12.0% P=15.0% by AirfoilTools.com</title>
<g transform="translate(5.5116,19.34766)"><g transform="scale(1,-1)"><line fill="none" stroke="green" stroke-width="0.09" x1="18" x2="18" y1="-13.53" y2="19.35"></line><line fill="none" stroke="green" stroke-width="0.09" x1="36" x2="36" y1="-13.53" y2="19.35"></line><line fill="none" stroke="green" stroke-width="0.09" x1="54" x2="54" y1="-13.53" y2="19.35"></line><line fill="none" stroke="green" stroke-width="0.09" x1="72" x2="72" y1="-13.53" y2="19.35"></line><line fill="none" stroke="green" stroke-width="0.09" x1="90" x2="90" y1="-13.53" y2="19.35"></line><line fill="none" stroke="green" stroke-width="0.09" x1="108" x2="108" y1="-13.53" y2="19.35"></line><line fill="none" stroke="green" stroke-width="0.09" x1="126" x2="126" y1="-13.53" y2="19.35"></line><line fill="none" stroke="green" stroke-width="0.09" x1="144" x2="144" y1="-13.53" y2="19.35"></line><line fill="none" stroke="green" stroke-width="0.09" x1="162" x2="162" y1="-13.53" y2="19.35"></line><line fill="none" stroke="green" stroke-width="0.09" x1="180" x2="180" y1="-13.53" y2="19.35"></line><line fill="none" stroke="green" stroke-width="0.09" x1="-5.51" x2="185.4" y1="9" y2="9"></line><line fill="none" stroke="green" stroke-width="0.09" x1="-5.51" x2="185.4" y1="18" y2="18"></line><line fill="none" stroke="green" stroke-width="0.09" x1="-5.51" x2="185.4" y1="-9" y2="-9"></line>
<path fill="none" stroke="red" stroke-width="0.18" d="M 180 0.23 L 179.72 0.27 L 178.89 0.38 L 177.52 0.58 L 175.6 0.85 L 173.16 1.2 L 170.2 1.61 L 166.75 2.08 L 162.84 2.62 L 158.47 3.2 L 153.69 3.84 L 148.52 4.52 L 142.99 5.23 L 137.13 5.98 L 130.99 6.74 L 124.6 7.52 L 118 8.3 L 111.22 9.07 L 104.32 9.83 L 97.33 10.56 L 90.3 11.25 L 83.26 11.89 L 76.26 12.46 L 69.35 12.95 L 62.56 13.36 L 55.94 13.67 L 49.52 13.87 L 43.35 13.95 L 37.46 13.91 L 31.77 13.71 L 26.32 13.3 L 21.21 12.61 L 16.52 11.64 L 12.32 10.42 L 8.68 9 L 5.64 7.44 L 3.24 5.82 L 1.49 4.21 L 0.38 2.68 L -0.11 1.27 L 0 0 L 0.67 -1.08 L 1.84 -1.96 L 3.48 -2.65 L 5.57 -3.21 L 8.06 -3.67 L 10.94 -4.08 L 14.21 -4.47 L 17.86 -4.88 L 21.91 -5.33 L 26.4 -5.81 L 31.33 -6.34 L 36.74 -6.86 L 42.6 -7.31 L 48.76 -7.67 L 55.18 -7.92 L 61.82 -8.07 L 68.63 -8.13 L 75.58 -8.1 L 82.62 -7.99 L 89.7 -7.8 L 96.79 -7.54 L 103.84 -7.22 L 110.8 -6.85 L 117.63 -6.43 L 124.28 -5.97 L 130.73 -5.48 L 136.92 -4.97 L 142.82 -4.45 L 148.38 -3.92 L 153.59 -3.4 L 158.4 -2.88 L 162.79 -2.39 L 166.72 -1.93 L 170.18 -1.51 L 173.14 -1.14 L 175.59 -0.82 L 177.51 -0.56 L 178.89 -0.38 L 179.72 -0.26 L 180 -0.23 "></path>
<path fill="none" stroke="blue" stroke-width="0.18" d="M 0 0 L 180 0 "></path>
<path fill="none" stroke="rgb(120,120,0)" stroke-width="0.18" d="M 0.38 2.68 L -0.11 0.63 L 0 0 L 0.67 1 L 1.84 1.29 L 3.48 1.66 L 5.57 2.09 L 8.06 2.5 L 10.94 2.9 L 14.21 3.25 L 17.86 3.52 L 21.91 3.69 L 26.4 3.74 L 31.33 3.67 L 36.74 3.51 L 42.6 3.32 L 48.76 3.1 L 55.18 2.89 L 61.82 2.66 L 68.63 2.43 L 75.58 2.2 L 82.62 1.97 L 89.7 1.75 L 96.79 1.53 L 103.84 1.33 L 110.8 1.13 L 117.63 0.95 L 124.28 0.79 L 130.73 0.64 L 136.92 0.51 L 142.82 0.4 L 148.38 0.31 L 153.59 0.23 L 158.4 0.17 L 162.79 0.12 L 166.72 0.08 L 170.18 0.05 L 173.14 0.03 L 175.59 0.02 L 177.51 0.01 L 178.89 0 L 179.72 0 L 180 0 "></path>
<line fill="none" stroke="black" stroke-width="0.18" x1="-5.51" x2="185.4" y1="0" y2="0"></line>
<line fill="none" stroke="black" stroke-width="0.18" x1="0" x2="0" y1="-13.53" y2="19.35"></line>
</g>
</g>
</svg>