<!DOCTYPE svg PUBLIC "-//W3C//DTD SVG 1.1//EN" "http://www.w3.org/Graphics/SVG/1.1/DTD/svg11.dtd">
<svg width="191.01mm" height="38.17mm" viewBox="0 0 191.01 38.17" xmlns="http://www.w3.org/2000/svg" version="1.1" xmlns:xlink="http://www.w3.org/1999/xlink">
<title>Airfoil plot (naca23115) NACA 23115 Airfoil cl=0.30 T=15.0% P=15.0% by AirfoilTools.com</title>
<g transform="translate(5.60898,22.00518)"><g transform="scale(1,-1)"><line fill="none" stroke="green" stroke-width="0.09" x1="18" x2="18" y1="-16.17" y2="22.01"></line><line fill="none" stroke="green" stroke-width="0.09" x1="36" x2="36" y1="-16.17" y2="22.01"></line><line fill="none" stroke="green" stroke-width="0.09" x1="54" x2="54" y1="-16.17" y2="22.01"></line><line fill="none" stroke="green" stroke-width="0.09" x1="72" x2="72" y1="-16.17" y2="22.01"></line><line fill="none" stroke="green" stroke-width="0.09" x1="90" x2="90" y1="-16.17" y2="22.01"></line><line fill="none" stroke="green" stroke-width="0.09" x1="108" x2="108" y1="-16.17" y2="22.01"></line><line fill="none" stroke="green" stroke-width="0.09" x1="126" x2="126" y1="-16.17" y2="22.01"></line><line fill="none" stroke="green" stroke-width="0.09" x1="144" x2="144" y1="-16.17" y2="22.01"></line><line fill="none" stroke="green" stroke-width="0.09" x1="162" x2="162" y1="-16.17" y2="22.01"></line><line fill="none" stroke="green" stroke-width="0.09" x1="180" x2="180" y1="-16.17" y2="22.01"></line><line fill="none" stroke="green" stroke-width="0.09" x1="-5.61" x2="185.4" y1="9" y2="9"></line><line fill="none" stroke="green" stroke-width="0.09" x1="-5.61" x2="185.4" y1="18" y2="18"></line><line fill="none" stroke="green" stroke-width="0.09" x1="-5.61" x2="185.4" y1="-9" y2="-9"></line>
<path fill="none" stroke="red" stroke-width="0.18" d="M 180 0.28 L 179.72 0.33 L 178.89 0.48 L 177.52 0.72 L 175.6 1.06 L 173.16 1.49 L 170.2 2 L 166.76 2.58 L 162.84 3.24 L 158.48 3.97 L 153.7 4.75 L 148.53 5.57 L 143.01 6.44 L 137.16 7.34 L 131.02 8.27 L 124.64 9.2 L 118.04 10.14 L 111.28 11.06 L 104.38 11.96 L 97.4 12.82 L 90.37 13.63 L 83.34 14.37 L 76.35 15.03 L 69.44 15.59 L 62.65 16.04 L 56.03 16.37 L 49.62 16.56 L 43.45 16.61 L 37.55 16.5 L 31.82 16.22 L 26.31 15.68 L 21.12 14.85 L 16.35 13.71 L 12.08 12.29 L 8.39 10.63 L 5.34 8.83 L 2.95 6.95 L 1.24 5.07 L 0.19 3.26 L -0.21 1.56 L 0 0 L 0.76 -1.38 L 2.02 -2.54 L 3.73 -3.51 L 5.86 -4.34 L 8.36 -5.06 L 11.22 -5.71 L 14.44 -6.33 L 18.03 -6.95 L 22 -7.57 L 26.41 -8.2 L 31.28 -8.84 L 36.65 -9.45 L 42.5 -9.97 L 48.67 -10.36 L 55.09 -10.62 L 61.73 -10.75 L 68.54 -10.77 L 75.49 -10.67 L 82.54 -10.48 L 89.63 -10.18 L 96.72 -9.81 L 103.78 -9.35 L 110.74 -8.84 L 117.58 -8.27 L 124.24 -7.66 L 130.69 -7.01 L 136.89 -6.34 L 142.79 -5.66 L 148.37 -4.98 L 153.58 -4.3 L 158.39 -3.65 L 162.78 -3.02 L 166.72 -2.43 L 170.18 -1.9 L 173.14 -1.43 L 175.59 -1.03 L 177.51 -0.71 L 178.89 -0.47 L 179.72 -0.33 L 180 -0.28 "></path>
<path fill="none" stroke="blue" stroke-width="0.18" d="M 0 0 L 180 0 "></path>
<path fill="none" stroke="rgb(120,120,0)" stroke-width="0.18" d="M 0.19 3.26 L -0.21 0.78 L 0 0 L 0.76 1.43 L 2.02 1.69 L 3.73 2.02 L 5.86 2.4 L 8.36 2.78 L 11.22 3.09 L 14.44 3.37 L 18.03 3.58 L 22 3.71 L 26.41 3.74 L 31.28 3.66 L 36.65 3.5 L 42.5 3.31 L 48.67 3.1 L 55.09 2.89 L 61.73 2.67 L 68.54 2.44 L 75.49 2.21 L 82.54 1.99 L 89.63 1.76 L 96.72 1.55 L 103.78 1.34 L 110.74 1.15 L 117.58 0.97 L 124.24 0.8 L 130.69 0.65 L 136.89 0.52 L 142.79 0.41 L 148.37 0.31 L 153.58 0.23 L 158.39 0.17 L 162.78 0.12 L 166.72 0.08 L 170.18 0.05 L 173.14 0.03 L 175.59 0.02 L 177.51 0.01 L 178.89 0 L 179.72 0 L 180 0 "></path>
<line fill="none" stroke="black" stroke-width="0.18" x1="-5.61" x2="185.4" y1="0" y2="0"></line>
<line fill="none" stroke="black" stroke-width="0.18" x1="0" x2="0" y1="-16.17" y2="22.01"></line>
</g>
</g>
</svg>